<svg xmlns="http://www.w3.org/2000/svg" xmlns:xlink="http://www.w3.org/1999/xlink" version="1.1" width="1000" height="1000" viewBox="0 0 1000 1000" xml:space="preserve">
<rect x="0" y="0" width="100%" height="100%" fill="rgba(255,255,255,0)"/>
<g transform="matrix(37.5 0 0 37.5 500 392.8962)" id="430274">
<g style="" vector-effect="non-scaling-stroke">
		<g transform="matrix(1 0 0 1 2.6049 -1.1312)">
<path style="stroke: none; stroke-width: 1; stroke-dasharray: none; stroke-linecap: butt; stroke-dashoffset: 0; stroke-linejoin: miter; stroke-miterlimit: 4; is-custom-font: none; font-file-url: none; fill: rgb(255,255,255); fill-rule: nonzero; opacity: 1;" transform=" translate(-10.6048, -6.8687)" d="M 13.3589 11.2375 C 15.0613 9.72095 16 7.99998 16 7.99998 C 16 7.99998 13 2.49998 8 2.49998 C 6.98462 2.49998 6.05172 2.7268 5.20967 3.08831 L 5.98054 3.85918 C 6.60983 3.63315 7.28441 3.49998 8 3.49998 C 10.1194 3.49998 11.879 4.66816 13.1679 5.95708 C 13.8037 6.59288 14.2978 7.23191 14.6327 7.71239 C 14.7055 7.81675 14.7704 7.91319 14.8273 7.99998 C 14.7704 8.08677 14.7055 8.1832 14.6327 8.28756 C 14.2978 8.76805 13.8037 9.40707 13.1679 10.0429 C 13.0031 10.2077 12.8306 10.3705 12.6506 10.5292 L 13.3589 11.2375 Z" stroke-linecap="round"/>
</g>
		<g transform="matrix(1 0 0 1 1.162 -1.1619)">
<path style="stroke: none; stroke-width: 1; stroke-dasharray: none; stroke-linecap: butt; stroke-dashoffset: 0; stroke-linejoin: miter; stroke-miterlimit: 4; is-custom-font: none; font-file-url: none; fill: rgb(255,255,255); fill-rule: nonzero; opacity: 1;" transform=" translate(-9.1619, -6.838)" d="M 11.2975 9.17612 C 11.4286 8.80854 11.5 8.41259 11.5 7.99998 C 11.5 6.06698 9.933 4.49998 8 4.49998 C 7.58738 4.49998 7.19144 4.57138 6.82386 4.7025 L 7.64618 5.52482 C 7.76176 5.50845 7.87989 5.49998 8 5.49998 C 9.38071 5.49998 10.5 6.61926 10.5 7.99998 C 10.5 8.12008 10.4915 8.23821 10.4752 8.3538 L 11.2975 9.17612 Z" stroke-linecap="round"/>
</g>
		<g transform="matrix(1 0 0 1 -1.1619 1.1619)">
<path style="stroke: none; stroke-width: 1; stroke-dasharray: none; stroke-linecap: butt; stroke-dashoffset: 0; stroke-linejoin: miter; stroke-miterlimit: 4; is-custom-font: none; font-file-url: none; fill: rgb(255,255,255); fill-rule: nonzero; opacity: 1;" transform=" translate(-6.8381, -9.1619)" d="M 8.35385 10.4751 L 9.17617 11.2974 C 8.80858 11.4286 8.41263 11.5 8 11.5 C 6.067 11.5 4.5 9.93297 4.5 7.99998 C 4.5 7.58735 4.5714 7.1914 4.70253 6.82381 L 5.52485 7.64613 C 5.50847 7.76172 5.5 7.87986 5.5 7.99998 C 5.5 9.38069 6.61929 10.5 8 10.5 C 8.12012 10.5 8.23825 10.4915 8.35385 10.4751 Z" stroke-linecap="round"/>
</g>
		<g transform="matrix(1 0 0 1 -2.6048 1.1312)">
<path style="stroke: none; stroke-width: 1; stroke-dasharray: none; stroke-linecap: butt; stroke-dashoffset: 0; stroke-linejoin: miter; stroke-miterlimit: 4; is-custom-font: none; font-file-url: none; fill: rgb(255,255,255); fill-rule: nonzero; opacity: 1;" transform=" translate(-5.3952, -9.1312)" d="M 3.34944 5.47072 C 3.16945 5.62941 2.99693 5.79226 2.83211 5.95708 C 2.19631 6.59288 1.70216 7.23191 1.36727 7.71239 C 1.29454 7.81675 1.22963 7.91319 1.1727 7.99998 C 1.22963 8.08677 1.29454 8.1832 1.36727 8.28756 C 1.70216 8.76805 2.19631 9.40707 2.83211 10.0429 C 4.12103 11.3318 5.88062 12.5 8 12.5 C 8.7156 12.5 9.39018 12.3668 10.0195 12.1408 L 10.7904 12.9116 C 9.9483 13.2732 9.01539 13.5 8 13.5 C 3 13.5 0 7.99998 0 7.99998 C 0 7.99998 0.938717 6.279 2.64112 4.7624 L 3.34944 5.47072 Z" stroke-linecap="round"/>
</g>
		<g transform="matrix(1 0 0 1 0.0001 -0.0001)">
<path style="stroke: none; stroke-width: 1; stroke-dasharray: none; stroke-linecap: butt; stroke-dashoffset: 0; stroke-linejoin: miter; stroke-miterlimit: 4; is-custom-font: none; font-file-url: none; fill: rgb(255,255,255); fill-rule: nonzero; opacity: 1;" transform=" translate(-8, -8)" d="M 13.6464 14.3535 L 1.64645 2.35353 L 2.35355 1.64642 L 14.3536 13.6464 L 13.6464 14.3535 Z" stroke-linecap="round"/>
</g>
</g>
</g>
<g transform="matrix(1 0 0 1 500 803.7854)" style="" id="180821">
		
<path xml:space="preserve" font-family="Raleway" font-size="56" font-style="normal" font-weight="normal" style="stroke: none; stroke-width: 1; stroke-dasharray: none; stroke-linecap: butt; stroke-dashoffset: 0; stroke-linejoin: miter; stroke-miterlimit: 4; is-custom-font: none; font-file-url: none; fill: rgb(255,255,255); fill-rule: nonzero; opacity: 1; white-space: pre;" d="M-189.54-10.60L-189.54-10.60Q-193.51-10.60-196.93-12.31Q-200.34-14.02-202.86-16.93Q-205.38-19.84-206.76-23.43Q-208.13-27.01-208.13-30.82L-208.13-30.82Q-208.13-34.85-206.76-38.46Q-205.38-42.08-202.92-44.88Q-200.46-47.68-197.10-49.30Q-193.74-50.92-189.76-50.92L-189.76-50.92Q-183.88-50.92-180.18-48.52Q-176.49-46.11-174.58-42.24L-174.58-42.24L-177.61-40.23Q-179.51-43.92-182.70-45.66Q-185.90-47.40-189.82-47.40L-189.82-47.40Q-193.12-47.40-195.78-46.00Q-198.44-44.60-200.34-42.24Q-202.25-39.89-203.23-36.92Q-204.21-33.96-204.21-30.76L-204.21-30.76Q-204.21-27.40-203.09-24.41Q-201.97-21.41-199.90-19.09Q-197.82-16.76-195.11-15.45Q-192.39-14.13-189.26-14.13L-189.26-14.13Q-185.62-14.13-182.37-15.95Q-179.12-17.77-176.15-21.58L-176.15-21.58L-176.15-17.44Q-181.81-10.60-189.54-10.60ZM-176.77-10.88L-176.77-27.40L-185.62-27.40L-185.62-30.43L-173.46-30.43L-173.46-10.88L-176.77-10.88ZM-151.62-40.17L-151.62-36.70Q-155.43-36.59-158.32-34.57Q-161.20-32.56-162.38-29.03L-162.38-29.03L-162.38-10.88L-166.18-10.88L-166.18-40.06L-162.60-40.06L-162.60-33.06Q-161.09-36.14-158.60-38.04Q-156.10-39.95-153.30-40.17L-153.30-40.17Q-152.74-40.23-152.32-40.23Q-151.90-40.23-151.62-40.17L-151.62-40.17ZM-148.99-19.28L-148.99-19.28Q-148.99-22.03-147.42-24.02Q-145.86-26.00-143.08-27.10Q-140.31-28.19-136.67-28.19L-136.67-28.19Q-134.54-28.19-132.25-27.85Q-129.95-27.52-128.16-26.84L-128.16-26.84L-128.16-29.31Q-128.16-33.00-130.34-35.19Q-132.53-37.37-136.39-37.37L-136.39-37.37Q-138.74-37.37-141.01-36.50Q-143.28-35.64-145.74-33.96L-145.74-33.96L-147.20-36.64Q-144.34-38.60-141.60-39.58Q-138.86-40.56-136.00-40.56L-136.00-40.56Q-130.62-40.56-127.49-37.48Q-124.35-34.40-124.35-28.97L-124.35-28.97L-124.35-15.48Q-124.35-14.69-124.02-14.33Q-123.68-13.96-122.95-13.91L-122.95-13.91L-122.95-10.88Q-123.57-10.83-124.02-10.77Q-124.46-10.72-124.69-10.77L-124.69-10.77Q-126.09-10.83-126.82-11.67Q-127.54-12.51-127.60-13.46L-127.60-13.46L-127.66-15.59Q-129.62-13.07-132.75-11.70Q-135.89-10.32-139.14-10.32L-139.14-10.32Q-141.94-10.32-144.20-11.53Q-146.47-12.73-147.73-14.78Q-148.99-16.82-148.99-19.28ZM-129.45-17.04L-129.45-17.04Q-128.83-17.83-128.50-18.56Q-128.16-19.28-128.16-19.84L-128.16-19.84L-128.16-24.10Q-130.06-24.83-132.11-25.22Q-134.15-25.61-136.22-25.61L-136.22-25.61Q-140.31-25.61-142.83-23.99Q-145.35-22.36-145.35-19.56L-145.35-19.56Q-145.35-17.94-144.51-16.51Q-143.67-15.08-142.05-14.16Q-140.42-13.24-138.24-13.24L-138.24-13.24Q-135.50-13.24-133.12-14.30Q-130.74-15.36-129.45-17.04ZM-101.22-10.32L-101.22-10.32Q-104.86-10.32-107.75-12.23Q-110.63-14.13-112.31-16.93L-112.31-16.93L-112.31 1.04L-116.12 1.04L-116.12-40.06L-112.70-40.06L-112.70-34.40Q-110.97-37.15-108.06-38.86Q-105.14-40.56-101.84-40.56L-101.84-40.56Q-98.82-40.56-96.30-39.30Q-93.78-38.04-91.93-35.92Q-90.08-33.79-89.04-31.07Q-88.01-28.36-88.01-25.44L-88.01-25.44Q-88.01-21.36-89.66-17.91Q-91.31-14.47-94.28-12.40Q-97.25-10.32-101.22-10.32ZM-102.29-13.68L-102.29-13.68Q-99.88-13.68-97.98-14.66Q-96.07-15.64-94.70-17.32Q-93.33-19.00-92.60-21.10Q-91.87-23.20-91.87-25.44L-91.87-25.44Q-91.87-27.80-92.68-29.92Q-93.50-32.05-95.01-33.68Q-96.52-35.30-98.48-36.25Q-100.44-37.20-102.74-37.20L-102.74-37.20Q-104.19-37.20-105.76-36.64Q-107.33-36.08-108.76-35.05Q-110.18-34.01-111.14-32.72Q-112.09-31.44-112.31-29.98L-112.31-29.98L-112.31-21.02Q-111.42-18.95-109.90-17.30Q-108.39-15.64-106.40-14.66Q-104.42-13.68-102.29-13.68ZM-57.04-27.96L-57.04-10.88L-60.85-10.88L-60.85-27.18Q-60.85-32.11-62.58-34.60Q-64.32-37.09-67.57-37.09L-67.57-37.09Q-69.70-37.09-71.80-36.00Q-73.90-34.91-75.49-33.03Q-77.09-31.16-77.76-28.75L-77.76-28.75L-77.76-10.88L-81.57-10.88L-81.57-51.76L-77.76-51.76L-77.76-33.45Q-76.02-36.70-72.92-38.63Q-69.81-40.56-66.28-40.56L-66.28-40.56Q-63.76-40.56-62.00-39.67Q-60.23-38.77-59.14-37.06Q-58.05-35.36-57.54-33.09Q-57.04-30.82-57.04-27.96L-57.04-27.96ZM-45.11-10.88L-48.92-10.88L-48.92-40.06L-45.11-40.06L-45.11-10.88ZM-45.11-46.16L-48.92-46.16L-48.92-51.76L-45.11-51.76L-45.11-46.16ZM-24.06-10.32L-24.06-10.32Q-27.25-10.32-29.91-11.53Q-32.57-12.73-34.56-14.86Q-36.54-16.99-37.64-19.73Q-38.73-22.48-38.73-25.56L-38.73-25.56Q-38.73-29.70-36.88-33.12Q-35.03-36.53-31.73-38.55Q-28.42-40.56-24.11-40.56L-24.11-40.56Q-20.02-40.56-16.89-38.69Q-13.75-36.81-12.24-33.62L-12.24-33.62L-15.94-32.44Q-17.17-34.68-19.38-35.94Q-21.59-37.20-24.28-37.20L-24.28-37.20Q-27.19-37.20-29.60-35.69Q-32.01-34.18-33.44-31.55Q-34.86-28.92-34.86-25.56L-34.86-25.56Q-34.86-22.25-33.41-19.56Q-31.95-16.88-29.54-15.28Q-27.14-13.68-24.22-13.68L-24.22-13.68Q-22.32-13.68-20.56-14.36Q-18.79-15.03-17.48-16.18Q-16.16-17.32-15.71-18.67L-15.71-18.67L-11.96-17.55Q-12.74-15.48-14.56-13.82Q-16.38-12.17-18.82-11.25Q-21.26-10.32-24.06-10.32ZM6.46-31.04L6.46-31.04Q6.46-34.68 7.72-38.18Q8.98-41.68 11.39-44.57Q13.80-47.45 17.33-49.16Q20.86-50.87 25.34-50.87L25.34-50.87Q30.66-50.87 34.44-48.43Q38.22-46.00 40.01-42.19L40.01-42.19L36.93-40.28Q35.64-42.92 33.68-44.46Q31.72-46.00 29.51-46.67Q27.30-47.34 25.11-47.34L25.11-47.34Q21.53-47.34 18.78-45.91Q16.04-44.48 14.16-42.10Q12.29-39.72 11.34-36.78Q10.38-33.84 10.38-30.82L10.38-30.82Q10.38-27.52 11.50-24.49Q12.62-21.47 14.64-19.14Q16.66-16.82 19.37-15.45Q22.09-14.08 25.28-14.08L25.28-14.08Q27.52-14.08 29.87-14.86Q32.22-15.64 34.27-17.27Q36.31-18.89 37.54-21.47L37.54-21.47L40.79-19.79Q39.56-16.82 36.98-14.75Q34.41-12.68 31.24-11.61Q28.08-10.55 25.06-10.55L25.06-10.55Q20.97-10.55 17.55-12.31Q14.14-14.08 11.64-17.02Q9.15-19.96 7.81-23.62Q6.46-27.29 6.46-31.04ZM59.16-10.32L59.16-10.32Q56.02-10.32 53.36-11.53Q50.70-12.73 48.77-14.83Q46.84-16.93 45.78-19.65Q44.71-22.36 44.71-25.39L44.71-25.39Q44.71-28.52 45.78-31.24Q46.84-33.96 48.80-36.06Q50.76-38.16 53.42-39.36Q56.08-40.56 59.22-40.56L59.22-40.56Q62.35-40.56 64.98-39.36Q67.62-38.16 69.58-36.06Q71.54-33.96 72.60-31.24Q73.66-28.52 73.66-25.39L73.66-25.39Q73.66-22.36 72.60-19.65Q71.54-16.93 69.60-14.83Q67.67-12.73 65.01-11.53Q62.35-10.32 59.16-10.32ZM48.58-25.33L48.58-25.33Q48.58-22.08 50.00-19.42Q51.43-16.76 53.84-15.22Q56.25-13.68 59.16-13.68L59.16-13.68Q62.07-13.68 64.48-15.25Q66.89-16.82 68.34-19.54Q69.80-22.25 69.80-25.44L69.80-25.44Q69.80-28.69 68.34-31.38Q66.89-34.07 64.48-35.64Q62.07-37.20 59.16-37.20L59.16-37.20Q56.25-37.20 53.87-35.58Q51.49-33.96 50.03-31.30Q48.58-28.64 48.58-25.33ZM104.58-27.96L104.58-10.88L100.77-10.88L100.77-27.18Q100.77-32.33 99.26-34.71Q97.74-37.09 94.50-37.09L94.50-37.09Q92.26-37.09 90.07-36.00Q87.89-34.91 86.24-33.03Q84.58-31.16 83.86-28.75L83.86-28.75L83.86-10.88L80.05-10.88L80.05-40.06L83.52-40.06L83.52-33.45Q84.70-35.58 86.60-37.18Q88.50-38.77 90.91-39.67Q93.32-40.56 95.90-40.56L95.90-40.56Q98.30-40.56 99.98-39.67Q101.66-38.77 102.67-37.12Q103.68-35.47 104.13-33.14Q104.58-30.82 104.58-27.96L104.58-27.96ZM125.41-15.36L126.42-12.28Q125.97-12.12 125.02-11.67Q124.06-11.22 122.72-10.88Q121.38-10.55 119.81-10.55L119.81-10.55Q118.18-10.55 116.76-11.16Q115.33-11.78 114.49-13.04Q113.65-14.30 113.65-16.15L113.65-16.15L113.65-37.04L109.62-37.04L109.62-40.06L113.65-40.06L113.65-49.92L117.46-49.92L117.46-40.06L124.18-40.06L124.18-37.04L117.46-37.04L117.46-17.21Q117.57-15.64 118.60-14.86Q119.64-14.08 120.98-14.08L120.98-14.08Q122.55-14.08 123.84-14.61Q125.13-15.14 125.41-15.36L125.41-15.36ZM143.27-10.32L143.27-10.32Q140.14-10.32 137.45-11.53Q134.76-12.73 132.80-14.83Q130.84-16.93 129.75-19.68Q128.66-22.42 128.66-25.56L128.66-25.56Q128.66-29.64 130.53-33.06Q132.41-36.48 135.71-38.52Q139.02-40.56 143.22-40.56L143.22-40.56Q147.53-40.56 150.75-38.49Q153.97-36.42 155.82-33.03Q157.66-29.64 157.66-25.61L157.66-25.61Q157.66-25.16 157.66-24.74Q157.66-24.32 157.61-24.10L157.61-24.10L132.63-24.10Q132.91-20.96 134.40-18.53Q135.88-16.09 138.26-14.66Q140.64-13.24 143.44-13.24L143.44-13.24Q146.30-13.24 148.84-14.69Q151.39-16.15 152.40-18.50L152.40-18.50L155.70-17.60Q154.81-15.53 152.96-13.85Q151.11-12.17 148.62-11.25Q146.13-10.32 143.27-10.32ZM132.52-26.84L132.52-26.84L154.08-26.84Q153.86-30.04 152.37-32.44Q150.89-34.85 148.51-36.22Q146.13-37.60 143.27-37.60L143.27-37.60Q140.42-37.60 138.06-36.22Q135.71-34.85 134.23-32.42Q132.74-29.98 132.52-26.84ZM188.07-27.96L188.07-10.88L184.26-10.88L184.26-27.18Q184.26-32.33 182.75-34.71Q181.24-37.09 177.99-37.09L177.99-37.09Q175.75-37.09 173.57-36.00Q171.38-34.91 169.73-33.03Q168.08-31.16 167.35-28.75L167.35-28.75L167.35-10.88L163.54-10.88L163.54-40.06L167.02-40.06L167.02-33.45Q168.19-35.58 170.10-37.18Q172.00-38.77 174.41-39.67Q176.82-40.56 179.39-40.56L179.39-40.56Q181.80-40.56 183.48-39.67Q185.16-38.77 186.17-37.12Q187.18-35.47 187.62-33.14Q188.07-30.82 188.07-27.96L188.07-27.96ZM208.90-15.36L209.91-12.28Q209.46-12.12 208.51-11.67Q207.56-11.22 206.22-10.88Q204.87-10.55 203.30-10.55L203.30-10.55Q201.68-10.55 200.25-11.16Q198.82-11.78 197.98-13.04Q197.14-14.30 197.14-16.15L197.14-16.15L197.14-37.04L193.11-37.04L193.11-40.06L197.14-40.06L197.14-49.92L200.95-49.92L200.95-40.06L207.67-40.06L207.67-37.04L200.95-37.04L200.95-17.21Q201.06-15.64 202.10-14.86Q203.14-14.08 204.48-14.08L204.48-14.08Q206.05-14.08 207.34-14.61Q208.62-15.14 208.90-15.36L208.90-15.36Z"/><path xml:space="preserve" font-family="Raleway" font-size="56" font-style="normal" font-weight="normal" style="stroke: none; stroke-width: 1; stroke-dasharray: none; stroke-linecap: butt; stroke-dashoffset: 0; stroke-linejoin: miter; stroke-miterlimit: 4; is-custom-font: none; font-file-url: none; fill: rgb(255,255,255); fill-rule: nonzero; opacity: 1; white-space: pre;" d="M-177.91 25.91L-177.91 25.91Q-177.91 22.27-176.65 18.77Q-175.39 15.27-172.98 12.38Q-170.57 9.50-167.04 7.79Q-163.51 6.08-159.03 6.08L-159.03 6.08Q-153.71 6.08-149.93 8.52Q-146.15 10.96-144.36 14.76L-144.36 14.76L-147.44 16.67Q-148.73 14.04-150.69 12.50Q-152.65 10.96-154.86 10.28Q-157.07 9.61-159.26 9.61L-159.26 9.61Q-162.84 9.61-165.59 11.04Q-168.33 12.47-170.21 14.85Q-172.08 17.23-173.03 20.17Q-173.99 23.11-173.99 26.13L-173.99 26.13Q-173.99 29.44-172.87 32.46Q-171.75 35.48-169.73 37.81Q-167.71 40.13-165.00 41.50Q-162.28 42.88-159.09 42.88L-159.09 42.88Q-156.85 42.88-154.50 42.09Q-152.15 41.31-150.10 39.68Q-148.06 38.06-146.83 35.48L-146.83 35.48L-143.58 37.16Q-144.81 40.13-147.39 42.20Q-149.96 44.28-153.13 45.34Q-156.29 46.40-159.31 46.40L-159.31 46.40Q-163.40 46.40-166.82 44.64Q-170.23 42.88-172.73 39.94Q-175.22 37.00-176.56 33.33Q-177.91 29.66-177.91 25.91ZM-137.47 40.75L-137.47 5.19L-133.67 5.19L-133.67 39.46Q-133.67 41.64-132.88 42.32Q-132.10 42.99-130.98 42.99L-130.98 42.99Q-129.97 42.99-128.96 42.76Q-127.95 42.54-127.23 42.32L-127.23 42.32L-126.55 45.40Q-127.62 45.84-129.16 46.12Q-130.70 46.40-131.82 46.40L-131.82 46.40Q-134.39 46.40-135.94 44.89Q-137.47 43.38-137.47 40.75L-137.47 40.75ZM-118.60 46.07L-122.41 46.07L-122.41 16.89L-118.60 16.89L-118.60 46.07ZM-118.60 10.79L-122.41 10.79L-122.41 5.19L-118.60 5.19L-118.60 10.79ZM-97.55 46.63L-97.55 46.63Q-100.74 46.63-103.40 45.42Q-106.06 44.22-108.05 42.09Q-110.03 39.96-111.13 37.22Q-112.22 34.48-112.22 31.40L-112.22 31.40Q-112.22 27.25-110.37 23.84Q-108.52 20.42-105.22 18.40Q-101.91 16.39-97.60 16.39L-97.60 16.39Q-93.51 16.39-90.38 18.26Q-87.24 20.14-85.73 23.33L-85.73 23.33L-89.43 24.51Q-90.66 22.27-92.87 21.01Q-95.08 19.75-97.77 19.75L-97.77 19.75Q-100.68 19.75-103.09 21.26Q-105.50 22.77-106.93 25.40Q-108.35 28.04-108.35 31.40L-108.35 31.40Q-108.35 34.70-106.90 37.39Q-105.44 40.08-103.03 41.67Q-100.63 43.27-97.71 43.27L-97.71 43.27Q-95.81 43.27-94.05 42.60Q-92.28 41.92-90.97 40.78Q-89.65 39.63-89.20 38.28L-89.20 38.28L-85.45 39.40Q-86.23 41.48-88.05 43.13Q-89.87 44.78-92.31 45.70Q-94.75 46.63-97.55 46.63ZM-54.48 46.07L-58.63 46.07L-69.43 31.12L-75.65 36.94L-75.65 46.07L-79.46 46.07L-79.46 5.19L-75.65 5.19L-75.65 32.85L-59.13 16.95L-54.93 16.95L-66.86 28.88L-54.48 46.07ZM-8.11 6.31L-8.11 9.78L-22.28 9.78L-22.28 46.07L-26.20 46.07L-26.20 9.78L-40.37 9.78L-40.37 6.31L-8.11 6.31ZM3.20 46.63L3.20 46.63Q0.06 46.63-2.60 45.42Q-5.26 44.22-7.19 42.12Q-9.12 40.02-10.19 37.30Q-11.25 34.59-11.25 31.56L-11.25 31.56Q-11.25 28.43-10.19 25.71Q-9.12 23.00-7.16 20.90Q-5.20 18.80-2.54 17.59Q0.12 16.39 3.25 16.39L3.25 16.39Q6.39 16.39 9.02 17.59Q11.65 18.80 13.61 20.90Q15.57 23.00 16.64 25.71Q17.70 28.43 17.70 31.56L17.70 31.56Q17.70 34.59 16.64 37.30Q15.57 40.02 13.64 42.12Q11.71 44.22 9.05 45.42Q6.39 46.63 3.20 46.63ZM-7.39 31.62L-7.39 31.62Q-7.39 34.87-5.96 37.53Q-4.53 40.19-2.12 41.73Q0.29 43.27 3.20 43.27L3.20 43.27Q6.11 43.27 8.52 41.70Q10.93 40.13 12.38 37.42Q13.84 34.70 13.84 31.51L13.84 31.51Q13.84 28.26 12.38 25.57Q10.93 22.88 8.52 21.32Q6.11 19.75 3.20 19.75L3.20 19.75Q0.29 19.75-2.09 21.37Q-4.47 23.00-5.93 25.66Q-7.39 28.32-7.39 31.62ZM64.29 10.62L62.39 13.76Q61.55 12.80 60.43 12.05Q59.31 11.29 57.91 10.73Q56.51 10.17 54.91 9.84Q53.32 9.50 51.53 9.50L51.53 9.50Q46.32 9.50 43.88 11.49Q41.45 13.48 41.45 16.89L41.45 16.89Q41.45 19.24 42.59 20.59Q43.74 21.93 46.21 22.77Q48.67 23.61 52.48 24.51L52.48 24.51Q56.73 25.40 59.81 26.64Q62.89 27.87 64.57 29.97Q66.25 32.07 66.25 35.65L66.25 35.65Q66.25 38.40 65.19 40.41Q64.13 42.43 62.22 43.77Q60.32 45.12 57.69 45.76Q55.05 46.40 51.92 46.40L51.92 46.40Q48.84 46.40 46.01 45.76Q43.18 45.12 40.66 43.86Q38.14 42.60 35.96 40.64L35.96 40.64L37.92 37.44Q38.98 38.56 40.47 39.54Q41.95 40.52 43.77 41.31Q45.59 42.09 47.69 42.51Q49.79 42.93 52.03 42.93L52.03 42.93Q56.79 42.93 59.45 41.20Q62.11 39.46 62.11 36.04L62.11 36.04Q62.11 33.58 60.77 32.10Q59.42 30.61 56.73 29.66Q54.05 28.71 50.13 27.81L50.13 27.81Q45.98 26.86 43.13 25.68Q40.27 24.51 38.84 22.58Q37.41 20.64 37.41 17.45L37.41 17.45Q37.41 13.76 39.23 11.21Q41.05 8.66 44.25 7.34Q47.44 6.03 51.58 6.03L51.58 6.03Q54.21 6.03 56.48 6.56Q58.75 7.09 60.68 8.10Q62.61 9.11 64.29 10.62L64.29 10.62ZM96.89 28.99L96.89 46.07L93.08 46.07L93.08 29.77Q93.08 24.84 91.34 22.35Q89.61 19.86 86.36 19.86L86.36 19.86Q84.23 19.86 82.13 20.95Q80.03 22.04 78.43 23.92Q76.84 25.80 76.17 28.20L76.17 28.20L76.17 46.07L72.36 46.07L72.36 5.19L76.17 5.19L76.17 23.50Q77.90 20.25 81.01 18.32Q84.12 16.39 87.65 16.39L87.65 16.39Q90.17 16.39 91.93 17.28Q93.69 18.18 94.79 19.89Q95.88 21.60 96.38 23.86Q96.89 26.13 96.89 28.99L96.89 28.99ZM117.44 46.63L117.44 46.63Q114.30 46.63 111.64 45.42Q108.98 44.22 107.05 42.12Q105.12 40.02 104.05 37.30Q102.99 34.59 102.99 31.56L102.99 31.56Q102.99 28.43 104.05 25.71Q105.12 23.00 107.08 20.90Q109.04 18.80 111.70 17.59Q114.36 16.39 117.49 16.39L117.49 16.39Q120.63 16.39 123.26 17.59Q125.89 18.80 127.85 20.90Q129.81 23.00 130.88 25.71Q131.94 28.43 131.94 31.56L131.94 31.56Q131.94 34.59 130.88 37.30Q129.81 40.02 127.88 42.12Q125.95 44.22 123.29 45.42Q120.63 46.63 117.44 46.63ZM106.85 31.62L106.85 31.62Q106.85 34.87 108.28 37.53Q109.71 40.19 112.12 41.73Q114.53 43.27 117.44 43.27L117.44 43.27Q120.35 43.27 122.76 41.70Q125.17 40.13 126.62 37.42Q128.08 34.70 128.08 31.51L128.08 31.51Q128.08 28.26 126.62 25.57Q125.17 22.88 122.76 21.32Q120.35 19.75 117.44 19.75L117.44 19.75Q114.53 19.75 112.15 21.37Q109.77 23.00 108.31 25.66Q106.85 28.32 106.85 31.62ZM163.47 42.15L174.05 16.89L177.81 16.89L165.26 46.07L161.96 46.07L155.85 31.56L149.80 46.07L146.50 46.07L133.96 16.89L137.65 16.89L148.29 42.15L153.67 28.99L148.74 16.95L152.16 16.95L155.85 26.41L159.60 16.95L162.96 16.95L158.09 28.99L163.47 42.15Z"/></g>
</svg>