<svg width="102" height="116" viewBox="0 0 102 116" fill="none" xmlns="http://www.w3.org/2000/svg">
<path d="M89.3722 5.35018L66.067 15.6552C53.1382 21.684 53.0669 31.7411 53.0669 31.7411M56.7144 62.8571L78.9958 52.4224C88.8486 47.828 93.2995 40.3595 93.8572 37.1428M55.4207 37.8751C57.1278 39.5837 59.9917 39.8862 66.067 37.0532L78.9958 31.0244C85.8521 27.8273 89.4875 27.8787 91.0001 29.9999" stroke="#000000" stroke-linecap="round"/>
<circle cx="93.8572" cy="32.8575" r="3.78571" stroke="#000000"/>
<circle cx="53.8572" cy="35.7144" r="3.78571" stroke="#000000"/>
<circle cx="53.8572" cy="64.2857" r="3.78571" stroke="#000000"/>
<circle cx="93.087" cy="4.28571" r="3.78571" stroke="#000000"/>
<path d="M56.1702 0.708496C43.23 0.708496 11.0316 7.81432 11.0316 50.0053L2.09679 67.0297C-1.75418 74.5797 5.3321 75.764 11.0316 75.764L11.0316 93.8247C11.0316 102.559 23.0479 100.042 34.448 100.042V114.994L86.8269 104.039C86.8269 102.904 86.8269 97.4368 86.8269 74.5797C95.7621 68.5101 101 58.4435 101 50.0053" stroke="#000000" stroke-linecap="round"/>
</svg>
